<svg width="172" height="41" viewBox="0 0 172 41" fill="none" xmlns="http://www.w3.org/2000/svg">
<g clip-path="url(#clip0_372_1090)">
<path d="M62.3701 10.7251C63.4835 11.3049 64.363 12.0592 65.002 12.9848V10.175H70.0189V30.0251C70.0189 31.85 69.65 33.4806 68.9154 34.9168C68.1808 36.353 67.0773 37.4895 65.6082 38.3328C64.139 39.1728 62.3569 39.5944 60.2718 39.5944C57.4718 39.5944 55.1791 38.9422 53.3871 37.6377C51.5952 36.3333 50.5839 34.5545 50.3467 32.3013H55.2911C55.5513 33.2039 56.1146 33.9187 56.981 34.4523C57.8473 34.986 58.8948 35.2528 60.1301 35.2528C61.5762 35.2528 62.7522 34.8213 63.6515 33.9549C64.554 33.0886 65.002 31.7776 65.002 30.0251V26.9649C64.363 27.8905 63.4769 28.6614 62.3503 29.2773C61.2237 29.8933 59.9358 30.203 58.4897 30.203C56.8294 30.203 55.3109 29.7748 53.9372 28.9216C52.5603 28.0684 51.4766 26.8628 50.6827 25.3113C49.8888 23.7598 49.4902 21.9744 49.4902 19.9584C49.4902 17.9424 49.8855 16.1999 50.6827 14.6582C51.4766 13.1166 52.557 11.9307 53.9208 11.1006C55.2845 10.2705 56.8064 9.85547 58.4929 9.85547C59.9621 9.85547 61.2567 10.1453 62.3701 10.7284V10.7251ZM64.2905 16.9147C63.8162 16.0483 63.1771 15.3862 62.3701 14.9218C61.563 14.4606 60.6967 14.2267 59.7743 14.2267C58.852 14.2267 57.9955 14.454 57.2116 14.902C56.4276 15.3533 55.7951 16.0121 55.3076 16.8751C54.8201 17.7415 54.5796 18.7659 54.5796 19.9518C54.5796 21.1377 54.8233 22.1753 55.3076 23.0647C55.7918 23.9541 56.4342 24.636 57.228 25.1103C58.0219 25.5847 58.8718 25.8219 59.7711 25.8219C60.6703 25.8219 61.563 25.5913 62.3668 25.1268C63.1738 24.6656 63.8129 24.0002 64.2872 23.1339C64.7616 22.2676 64.9987 21.2299 64.9987 20.021C64.9987 18.8121 64.7616 17.7744 64.2872 16.9081L64.2905 16.9147Z" fill="white"/>
<path d="M91.3409 21.5235H76.9326C77.0512 22.9465 77.5486 24.0632 78.4281 24.8669C79.3044 25.674 80.3848 26.0759 81.6662 26.0759C83.5175 26.0759 84.8318 25.282 85.6158 23.691H90.9885C90.4186 25.5883 89.3282 27.1464 87.7141 28.3685C86.1 29.5906 84.1203 30.2001 81.7716 30.2001C79.8742 30.2001 78.1712 29.7784 76.6658 28.9384C75.1604 28.0984 73.9844 26.906 73.1444 25.3643C72.3012 23.8227 71.8828 22.0439 71.8828 20.0279C71.8828 18.012 72.2979 16.1969 73.128 14.6553C73.9581 13.1137 75.1209 11.9278 76.6131 11.0977C78.1086 10.2676 79.8248 9.85254 81.7716 9.85254C83.7184 9.85254 85.3226 10.2577 86.805 11.0615C88.2873 11.8685 89.4369 13.0116 90.2572 14.4939C91.0741 15.9762 91.4859 17.6793 91.4859 19.5997C91.4859 20.3112 91.4397 20.9503 91.3442 21.5202L91.3409 21.5235ZM86.324 18.18C86.301 16.8986 85.8365 15.8741 84.9372 15.1033C84.0347 14.3325 82.9344 13.9471 81.63 13.9471C80.3947 13.9471 79.3571 14.3193 78.5171 15.0671C77.6738 15.8148 77.1599 16.8525 76.9689 18.18H86.324Z" fill="white"/>
<path d="M109.997 12.1118C111.443 13.5941 112.168 15.6628 112.168 18.3179V29.8801H107.187V18.9931C107.187 17.4284 106.795 16.2228 106.014 15.3828C105.23 14.5428 104.163 14.1212 102.812 14.1212C101.462 14.1212 100.352 14.5428 99.5579 15.3828C98.764 16.2261 98.3654 17.4284 98.3654 18.9931V29.8801H93.3848V10.1749H98.3654V12.629C99.0275 11.7758 99.8774 11.1071 100.908 10.6196C101.939 10.1354 103.073 9.8916 104.305 9.8916C106.653 9.8916 108.551 10.6328 109.997 12.1151V12.1118Z" fill="white"/>
<path d="M133.357 21.5235H118.948C119.067 22.9465 119.564 24.0632 120.444 24.8669C121.32 25.674 122.4 26.0759 123.682 26.0759C125.533 26.0759 126.847 25.282 127.631 23.691H133.004C132.434 25.5883 131.344 27.1464 129.73 28.3685C128.116 29.5906 126.136 30.2001 123.787 30.2001C121.89 30.2001 120.187 29.7784 118.681 28.9384C117.176 28.0984 116 26.906 115.16 25.3643C114.317 23.8227 113.898 22.0439 113.898 20.0279C113.898 18.012 114.313 16.1969 115.144 14.6553C115.974 13.1137 117.137 11.9278 118.629 11.0977C120.124 10.2676 121.84 9.85254 123.787 9.85254C125.734 9.85254 127.338 10.2577 128.821 11.0615C130.303 11.8685 131.453 13.0116 132.273 14.4939C133.09 15.9762 133.501 17.6793 133.501 19.5997C133.501 20.3112 133.452 20.9503 133.36 21.5202L133.357 21.5235ZM128.34 18.18C128.317 16.8986 127.852 15.8741 126.953 15.1033C126.05 14.3325 124.95 13.9471 123.646 13.9471C122.414 13.9471 121.376 14.3193 120.533 15.0671C119.689 15.8148 119.176 16.8525 118.984 18.18H128.34Z" fill="white"/>
<path d="M142.887 10.7761C143.918 10.1832 145.098 9.88672 146.428 9.88672V15.1177H145.111C143.546 15.1177 142.367 15.4867 141.57 16.2212C140.776 16.9558 140.377 18.2372 140.377 20.0621V29.8818H135.396V10.1733H140.377V13.2335C141.016 12.1893 141.853 11.3723 142.884 10.7794L142.887 10.7761Z" fill="white"/>
<path d="M147.863 6.98869C147.28 6.43199 146.99 5.73694 146.99 4.90683C146.99 4.07673 147.28 3.38168 147.863 2.82498C148.443 2.26828 149.174 1.98828 150.05 1.98828C150.927 1.98828 151.658 2.26828 152.238 2.82498C152.817 3.38168 153.111 4.07673 153.111 4.90683C153.111 5.73694 152.821 6.43199 152.238 6.98869C151.658 7.54539 150.927 7.82539 150.05 7.82539C149.174 7.82539 148.443 7.54539 147.863 6.98869ZM152.505 10.1741V29.8825H147.524V10.1741H152.505Z" fill="white"/>
<path d="M166.381 29.8823L162.326 23.7619L158.732 29.8823H153.395L159.835 19.9935L153.326 10.1738H158.946L162.965 16.258L166.595 10.1738H171.931L165.455 19.9935L172 29.8823H166.381Z" fill="white"/>
<path d="M30.9248 34.7745C30.7238 34.7745 30.5361 34.6493 30.4702 34.4484C30.3845 34.198 30.5196 33.9246 30.7732 33.839L30.8029 33.8291C33.7115 32.8508 35.8692 30.4823 36.5741 27.4946C37.2757 24.5233 36.4127 21.4598 34.265 19.3022C30.4076 15.4218 25.5554 12.6811 20.2322 11.3701C14.764 10.0261 9.03891 10.2666 3.67615 12.0684C3.4258 12.1541 3.15239 12.019 3.06674 11.7654C2.9811 11.515 3.11615 11.2416 3.3698 11.156C8.90714 9.2948 14.8167 9.04445 20.4628 10.4346C25.9573 11.7851 30.9676 14.618 34.9501 18.6203C37.3317 21.0151 38.2903 24.4146 37.5129 27.712C36.7289 31.0258 34.3374 33.6545 31.1125 34.7383L31.0829 34.7481C31.0335 34.7646 30.9808 34.7745 30.928 34.7745H30.9248Z" fill="#F28A48"/>
<path d="M6.99621 33.7174C6.73268 33.7174 6.51856 33.5065 6.51527 33.243C6.45598 27.4026 8.04702 21.7039 11.1105 16.7627C14.0949 11.9567 18.3344 8.06638 23.3744 5.51676C26.3884 3.99161 29.9164 4.12996 32.8119 5.88899C35.7238 7.65791 37.4796 10.7445 37.5158 14.1472V14.1769C37.5158 14.4437 37.305 14.6611 37.0415 14.6611C36.7747 14.6611 36.5573 14.4503 36.5573 14.1868V14.1571C36.5276 11.0903 34.9399 8.30355 32.3145 6.70922C29.7056 5.12477 26.5268 4.9963 23.8092 6.37322C18.9274 8.84378 14.8196 12.6122 11.9274 17.27C8.95948 22.0563 7.41785 27.5739 7.47714 33.2331C7.47714 33.5 7.26632 33.7174 7.00279 33.7174H6.9995H6.99621Z" fill="#F28A48"/>
<path d="M28.6309 37.0971C28.5848 37.0971 28.5353 37.0905 28.4859 37.074C22.9124 35.3249 17.9844 32.0538 14.2325 27.6101C10.5826 23.2883 8.19441 18.054 7.32478 12.4706C6.80431 9.13036 8.02971 5.81981 10.5958 3.60949C13.1784 1.38928 16.6569 0.671167 19.9049 1.68904L19.9345 1.69892C20.1881 1.77798 20.3298 2.04809 20.2474 2.30174C20.1684 2.55538 19.8983 2.69703 19.6446 2.61467L19.615 2.60479C16.6865 1.68574 13.5506 2.33468 11.2217 4.33748C8.90923 6.3271 7.80571 9.31483 8.27347 12.3223C9.11346 17.7279 11.4292 22.8008 14.9637 26.9876C18.5971 31.2896 23.3702 34.4585 28.7692 36.155C29.0229 36.234 29.1645 36.5041 29.0855 36.7578C29.0196 36.962 28.8318 37.0938 28.6276 37.0938L28.6309 37.0971Z" fill="#F28A48"/>
<path d="M17.378 39.7645C14.0346 39.7645 10.9151 38.2064 8.89909 35.4888L8.87933 35.4625C8.45768 34.8926 8.57627 34.0921 9.14615 33.6705C9.71602 33.2489 10.5165 33.3674 10.9381 33.9373L10.9579 33.9637C12.6214 36.2036 15.2731 37.4027 18.0566 37.1754C20.8204 36.9481 23.225 35.3439 24.4867 32.8832C26.9177 28.1463 27.9949 22.8297 27.6062 17.5098C27.2076 12.0449 25.2608 6.82047 21.9799 2.39982C21.5582 1.82994 21.6768 1.02948 22.2467 0.607842C22.8166 0.1862 23.617 0.304787 24.0387 0.874662C27.6094 5.68731 29.7275 11.3762 30.1624 17.3286C30.584 23.1196 29.4113 28.904 26.7662 34.0592C25.0961 37.3137 21.9173 39.4351 18.2642 39.7382C17.9677 39.7612 17.6712 39.7744 17.3748 39.7744L17.378 39.7645Z" fill="white"/>
<path d="M13.8811 31.0756C12.2044 31.0756 10.5277 30.9406 8.8576 30.6738C5.24729 30.0907 2.24639 27.7256 0.829936 24.3425C-0.593105 20.9431 -0.168169 17.1219 1.96639 14.121L1.98286 14.0947C2.39462 13.5182 3.19179 13.3832 3.77155 13.7916C4.34801 14.2034 4.48307 15.0005 4.0746 15.5803L4.05813 15.6067C2.44074 17.8796 2.12121 20.7751 3.19838 23.351C4.26895 25.9105 6.53857 27.6992 9.26936 28.1406C14.5267 28.9872 19.9158 28.3712 24.8536 26.3585C29.9265 24.2898 34.2945 20.8245 37.4864 16.3379C37.8982 15.7615 38.6986 15.6264 39.2751 16.0349C39.8516 16.4466 39.9866 17.2438 39.5782 17.8236C36.1029 22.7087 31.3496 26.4804 25.8221 28.7303C22.0141 30.2818 17.9558 31.0723 13.8811 31.0723V31.0756Z" fill="white"/>
</g>
<defs>
<clipPath id="clip0_372_1090">
<rect width="172" height="41" fill="white"/>
</clipPath>
</defs>
</svg>
